<svg width="24" height="22" viewBox="0 0 24 22" fill="none" xmlns="http://www.w3.org/2000/svg">
<path fill-rule="evenodd" clip-rule="evenodd" d="M1.62693 19.3403C1.57305 19.2488 1.6046 17.6748 1.6046 17.4297V7.67962C1.6046 7.39938 1.58421 7.03074 1.67738 6.79441C1.79435 6.4978 1.93142 6.26757 2.1816 6.07737C2.33221 5.96278 2.4724 5.88985 2.66007 5.82273C2.92259 5.72882 3.26801 5.75933 3.56834 5.75933H17.2156C17.8418 5.75933 18.2442 5.71156 18.7473 6.17679C18.7703 6.19807 18.7834 6.21503 18.8026 6.23676C19.2117 6.69678 19.2071 7.06631 19.207 7.66533V13.5182C19.2071 13.9904 19.2647 15.5292 19.1431 15.8898C19.0979 16.0238 19.0552 16.1108 18.9893 16.226C18.8662 16.4408 18.7068 16.5823 18.5099 16.725C18.0685 17.0449 17.3297 16.9599 16.7986 16.9599C16.1466 16.9599 15.4947 16.9599 14.8427 16.9599H5.59593C5.15362 16.9594 4.61279 17.0955 4.28002 17.3511L3.5801 17.8731C3.30983 18.0966 2.77764 18.4775 2.46704 18.7156L1.62693 19.3405V19.3403ZM17.4025 18.547C17.6143 18.547 17.8461 18.5663 18.0462 18.5334C18.2142 18.5057 18.4225 18.4798 18.58 18.42C18.7507 18.3551 18.8854 18.3142 19.0463 18.2398C19.5549 18.0049 20.0398 17.5591 20.3299 17.0782L20.5003 16.76C20.6101 16.5177 20.5928 16.5475 20.6805 16.2937C20.757 16.0718 20.7964 15.6569 20.7964 15.4309V7.63661C20.7961 7.18403 20.7987 6.85796 20.6902 6.44943C20.6698 6.37279 20.6256 6.27635 20.603 6.20551C20.5713 6.10639 20.5461 6.05058 20.5074 5.96962C20.4366 5.82139 20.3611 5.67808 20.2775 5.55306C20.1645 5.38429 20.1163 5.33667 19.9925 5.19023C19.8841 5.06224 19.8603 5.042 19.7465 4.94735C19.4854 4.73051 19.3954 4.65982 19.0705 4.48658C18.7446 4.31276 18.1758 4.16602 17.7763 4.16602H3.03615C2.64861 4.16602 2.24172 4.27987 1.93202 4.40458C1.67812 4.50682 1.28895 4.73334 1.10202 4.91118C1.07985 4.93231 1.07747 4.93589 1.05737 4.95315L1.02597 4.97919C0.868218 5.11596 0.859437 5.15719 0.762403 5.24842L0.484399 5.63149C0.343165 5.87184 0.19047 6.17857 0.121862 6.44809C-0.00285277 6.93743 0.0145597 7.30815 0.0150062 7.83767V18.5081C0.0145597 19.1324 -0.0573226 19.5767 0.117546 20.0889C0.136745 20.1452 0.195382 20.2586 0.226784 20.3107C0.404629 20.6052 0.629205 20.7872 0.933403 20.9274C1.32228 21.1067 1.85671 21.0753 2.21746 20.8671C2.4401 20.7387 2.93212 20.3571 3.1555 20.1807C3.40583 19.9831 3.84932 19.6776 4.08357 19.4835L5.00986 18.7848C5.18919 18.6629 5.26316 18.5467 5.58149 18.5467H17.4023L17.4025 18.547Z" fill="#828282"/>
<path fill-rule="evenodd" clip-rule="evenodd" d="M4.69686 0.974706C4.17865 1.06236 3.80882 1.62537 4.12924 2.16992C4.2227 2.32871 4.46886 2.54079 4.73347 2.55254C5.05657 2.56683 5.4133 2.55314 5.73997 2.55314L20.7247 2.55939C20.8996 2.55939 21.0362 2.54674 21.1959 2.58856C21.5853 2.6905 21.8666 2.82311 22.1089 3.17344C22.502 3.74165 22.4057 4.18917 22.4058 4.87332V11.8767C22.4058 12.2503 22.4009 12.448 22.6009 12.6754C22.7518 12.8469 23.0045 12.9846 23.3171 12.945C23.4939 12.9225 23.6784 12.8101 23.7896 12.6838C24.0555 12.3817 23.9939 12.0736 23.9939 11.6323V4.64338C23.9939 3.92114 24.0247 3.54312 23.7558 2.87832C23.7067 2.75658 23.6555 2.65241 23.59 2.54064L23.288 2.09431C23.2516 2.04654 23.2052 2.00919 23.17 1.96811C22.9004 1.65275 22.3646 1.28069 21.9763 1.16193C21.9352 1.14943 21.9302 1.14571 21.8931 1.13053C21.8531 1.11415 21.833 1.11401 21.7931 1.10121C21.713 1.07546 21.6696 1.06802 21.5883 1.04659C21.3044 0.971729 20.9908 0.965032 20.6672 0.965032H5.68252C5.42744 0.965032 4.91622 0.937648 4.69686 0.974855V0.974706Z" fill="#828282"/>
<path fill-rule="evenodd" clip-rule="evenodd" d="M10.3433 10.651C10.1253 10.6836 9.96587 10.7647 9.83104 10.9353C9.64114 11.175 9.58562 11.5407 9.77478 11.8397C10.0555 12.2835 10.6697 12.3805 11.0754 11.9209C11.2877 11.6804 11.3031 11.327 11.135 11.0268C10.991 10.7693 10.6804 10.6006 10.3433 10.651Z" fill="#828282"/>
<path fill-rule="evenodd" clip-rule="evenodd" d="M7.14709 10.6477C6.93412 10.6797 6.75583 10.7696 6.63513 10.9303C6.37097 11.2819 6.39776 11.7538 6.75732 12.0373C7.11911 12.3226 7.62467 12.2605 7.86934 11.92C7.92663 11.8403 7.9811 11.7886 8.0073 11.6697C8.05611 11.4474 8.09525 11.3131 7.94524 11.036C7.79596 10.7602 7.4809 10.5974 7.14709 10.6476V10.6477Z" fill="#828282"/>
<path fill-rule="evenodd" clip-rule="evenodd" d="M13.4462 10.6471C13.1912 10.6842 13.0488 10.7869 12.9388 10.9349C12.7314 11.2144 12.6983 11.4972 12.8678 11.8225C12.9489 11.9782 13.14 12.1233 13.3124 12.1837C13.8847 12.3842 14.6378 11.7608 14.2445 11.0357C14.1041 10.777 13.795 10.5964 13.4462 10.6471Z" fill="#828282"/>
</svg>
