<svg width="25" height="24" viewBox="0 0 25 24" fill="none" xmlns="http://www.w3.org/2000/svg">
<path fill-rule="evenodd" clip-rule="evenodd" d="M2.09448 22.0673C2.07226 21.7214 2.14718 21.2605 2.20363 20.9067C2.21354 20.8451 2.23546 20.804 2.24492 20.7417C2.26639 20.5981 2.3344 20.3677 2.38274 20.2375C2.3934 20.2087 2.39445 20.1847 2.40331 20.1555C2.41382 20.1213 2.42433 20.1129 2.43469 20.0838C2.44385 20.0581 2.4464 20.0299 2.45676 20.0021C2.47087 19.9644 2.47838 19.9637 2.49114 19.9225C2.51066 19.8601 2.52807 19.836 2.54804 19.7725C2.60765 19.5832 2.87414 19.0762 2.97938 18.9211C2.99439 18.8989 3.00911 18.8776 3.02127 18.8599C3.12396 18.7103 3.21029 18.5534 3.32259 18.4167C3.4454 18.267 3.56686 18.0874 3.70844 17.9547C3.7796 17.8879 3.84656 17.8061 3.92118 17.7432C3.96156 17.7091 3.99114 17.6754 4.03183 17.6363L4.73926 17.0606L5.39956 16.6673C5.42718 16.6517 5.44415 16.6515 5.47282 16.6368L5.98568 16.4053C6.13252 16.3523 6.32499 16.276 6.47768 16.2441C6.57812 16.223 6.70048 16.1681 6.80962 16.1525C6.88124 16.1423 6.91442 16.1259 6.97823 16.1124C7.04354 16.0986 7.10629 16.1013 7.168 16.0863C7.34546 16.0433 7.74797 16.0035 7.93564 16.0038C8.49129 16.0047 9.06645 15.9969 9.63111 15.9969C11.8997 15.9969 14.1671 15.9969 16.436 15.9969C16.7091 15.9969 17.0071 15.9893 17.2649 16.0119C17.4264 16.0261 17.6672 16.0471 17.8234 16.0854C17.8843 16.1004 17.9489 16.0972 18.0154 16.1109C18.0741 16.1229 18.1122 16.1415 18.1819 16.1514C18.2598 16.1625 18.2859 16.181 18.3577 16.1951C18.4804 16.2193 18.5718 16.2547 18.6837 16.2909C18.8872 16.3568 19.1263 16.4287 19.3061 16.5275L19.595 16.6616C19.6406 16.6855 19.6926 16.7147 19.728 16.7353C19.8636 16.8138 20.0083 16.8854 20.1322 16.9733L20.3868 17.1533C20.5073 17.2312 20.6362 17.3387 20.744 17.4267C20.8582 17.5199 20.9665 17.6357 21.0771 17.7355C21.1002 17.7564 21.1092 17.7652 21.1301 17.7853L21.2921 17.9554C21.3322 17.9945 21.3519 18.0239 21.3903 18.0634C21.4281 18.1023 21.4633 18.1397 21.4946 18.1769C21.531 18.22 21.5494 18.2524 21.5831 18.2943C21.7249 18.4707 21.9958 18.8421 22.0991 19.0501C22.1232 19.0987 22.1465 19.139 22.1776 19.1888C22.2398 19.288 22.3675 19.5538 22.4145 19.6861L22.5101 19.9224C22.5201 19.9524 22.5324 19.9703 22.5417 19.9937C22.5519 20.02 22.5567 20.0561 22.5661 20.0841C22.5753 20.1115 22.589 20.1309 22.5974 20.1564L22.7133 20.5658C22.7359 20.6685 22.7807 20.8002 22.7984 20.9068C22.8091 20.9711 22.8089 21.0284 22.8268 21.0957C22.8718 21.2652 22.9175 21.8692 22.9094 22.0675C22.9052 22.1715 22.8969 22.1646 22.8616 22.2374C22.8224 22.3184 22.7714 22.3452 22.699 22.3844C22.5981 22.4392 22.2988 22.4097 22.1753 22.4097C19.9067 22.4097 17.6392 22.4094 15.3705 22.4097H2.60855C2.54189 22.4097 2.47132 22.4113 2.40887 22.4063C2.30708 22.3982 2.25273 22.3613 2.19117 22.3013C2.12811 22.2397 2.10124 22.1696 2.09478 22.0672L2.09448 22.0673ZM2.36773 24H22.6676C22.9088 24 23.1793 23.917 23.386 23.817C23.4461 23.7879 23.4815 23.7757 23.5393 23.7409C23.5881 23.7115 23.6335 23.6864 23.6789 23.6516C23.7219 23.6185 23.7647 23.5818 23.8072 23.5511C23.8963 23.487 23.9671 23.4053 24.0405 23.3256C24.1336 23.2247 24.302 22.9596 24.3461 22.8299C24.4368 22.5643 24.4985 22.3781 24.4985 22.0789C24.4985 21.8216 24.4729 21.4015 24.4418 21.1401C24.4299 21.041 24.4089 20.9499 24.3984 20.8415C24.3934 20.7907 24.3843 20.7589 24.37 20.708C24.3549 20.6543 24.3555 20.6172 24.3481 20.558C24.3415 20.5038 24.3248 20.4743 24.3112 20.4208C24.2998 20.3759 24.2998 20.3258 24.285 20.2771C24.269 20.2241 24.2616 20.2145 24.2523 20.1524L24.1388 19.7482C24.1151 19.6785 24.0684 19.5783 24.0511 19.5027C24.0273 19.3988 23.9543 19.2484 23.9133 19.1493L23.8635 19.0267C23.8462 18.99 23.821 18.9369 23.8099 18.9088L23.7558 18.7894C23.7228 18.7126 23.6828 18.6477 23.647 18.5675C23.5702 18.3964 23.3776 18.0777 23.2716 17.9233L23.1404 17.7221C23.0461 17.5771 22.8181 17.2828 22.705 17.1497C22.6741 17.1132 22.6631 17.0991 22.6295 17.0651C22.5935 17.0285 22.581 17.006 22.5489 16.9736L22.3815 16.797C22.3228 16.7418 22.2786 16.6847 22.2195 16.6272L21.6819 16.1451C21.6182 16.1005 21.5637 16.0468 21.4994 15.9956L21.205 15.7852C20.9999 15.6374 20.7962 15.517 20.5808 15.3904C20.5414 15.3673 20.5061 15.3538 20.4692 15.3308L20.3099 15.2485C20.2192 15.2047 20.1227 15.1418 20.0275 15.1083C19.9032 15.0644 19.799 14.9913 19.6744 14.9569L18.793 14.6594L18.5086 14.5992C18.4592 14.5903 18.4278 14.5729 18.3808 14.5639C18.3292 14.5538 18.2808 14.5523 18.2326 14.5412C18.0893 14.508 17.7955 14.4653 17.6461 14.4541C17.5357 14.4459 17.4369 14.4367 17.3341 14.4241C17.0392 14.3878 16.3346 14.4084 16 14.4084C14.2014 14.4084 12.4028 14.4085 10.6041 14.4084C9.71759 14.4084 8.80192 14.39 7.92348 14.4127C7.70503 14.4183 7.51466 14.4444 7.30417 14.4585C7.18827 14.4663 7.1201 14.4903 7.0075 14.5005L6.58127 14.5728C6.52632 14.5897 6.50155 14.5992 6.44285 14.6073C6.37949 14.6158 6.35997 14.6258 6.30667 14.642L6.04183 14.7086C5.98313 14.7206 5.96842 14.7385 5.91287 14.7516L5.40917 14.9247C5.35782 14.9506 5.34326 14.946 5.29131 14.9663C5.26278 14.9774 5.26188 14.9832 5.23801 14.9936L4.82364 15.1749C4.78701 15.1952 4.75007 15.2198 4.71464 15.2382L4.38464 15.412C4.22025 15.5105 4.00705 15.6257 3.86037 15.7355L3.52272 15.9821C3.37814 16.1001 3.23746 16.199 3.10174 16.3284C2.92878 16.4931 2.75027 16.6518 2.59263 16.8276C2.53543 16.8913 2.48799 16.9405 2.42508 17.004L2.05425 17.4577C2.04089 17.4758 2.03023 17.4884 2.01957 17.5032C1.8897 17.6828 1.75293 17.8682 1.63927 18.062C1.55775 18.2011 1.46061 18.3509 1.39546 18.495L1.2258 18.8291C1.13167 18.9938 1.03408 19.3136 0.974777 19.4251C0.942648 19.4856 0.915474 19.606 0.894455 19.6767L0.807827 19.9327C0.791462 19.9995 0.793864 20.0102 0.770443 20.069C0.739516 20.1467 0.605145 20.8265 0.597488 20.906C0.587879 21.0059 0.562656 21.0882 0.554849 21.1964C0.532329 21.5075 0.491943 21.8256 0.503503 22.1469C0.508007 22.2687 0.530077 22.337 0.545241 22.4461C0.557702 22.5356 0.581123 22.6279 0.611751 22.7126C0.707237 22.9764 0.876289 23.2461 1.06831 23.4357C1.10044 23.4674 1.12161 23.4851 1.15599 23.5197C1.30447 23.6696 1.59288 23.829 1.79992 23.8954C1.95216 23.9442 2.18426 23.9999 2.36788 23.9999L2.36773 24Z" fill="#828282"/>
<path fill-rule="evenodd" clip-rule="evenodd" d="M12.178 1.60576C12.3633 1.58819 12.5773 1.5987 12.7701 1.60095L13.3034 1.65801C13.3541 1.66686 13.3767 1.68263 13.431 1.69089C13.5932 1.71566 13.755 1.7652 13.9135 1.80454C13.9569 1.81535 13.9763 1.83231 14.0212 1.84432C14.1692 1.88396 14.4326 1.98635 14.5647 2.05782C14.7234 2.14369 14.8918 2.21756 15.0451 2.32175C15.2271 2.44546 15.405 2.55882 15.5716 2.69994C15.6237 2.74408 15.6749 2.79062 15.7297 2.84032C15.8449 2.94496 15.9272 3.0385 16.0338 3.14374C16.1434 3.25214 16.2295 3.37795 16.3265 3.49236L16.4375 3.64459C16.5535 3.78947 16.6238 3.94892 16.7247 4.10311L16.8759 4.40953C16.893 4.44181 16.8859 4.41674 16.9027 4.46448C16.9337 4.55171 16.9781 4.63113 17.0065 4.72556C17.0212 4.77421 17.0364 4.79132 17.0488 4.83246L17.2308 5.54425C17.258 5.64109 17.2518 5.70805 17.2659 5.80594C17.3153 6.149 17.3036 6.31039 17.3013 6.659L17.2417 7.20054C17.2098 7.34692 17.1766 7.55846 17.1263 7.69283C17.1087 7.73998 17.1092 7.76655 17.0975 7.81279L16.8904 8.36078C16.7945 8.55836 16.6978 8.75609 16.5769 8.94211L16.4556 9.13008C16.4146 9.18548 16.3722 9.24493 16.3307 9.30273C16.1698 9.52688 16.0895 9.57778 15.9599 9.73422C15.9429 9.75464 15.9627 9.73257 15.9444 9.75314L15.8374 9.86304C15.8104 9.88721 15.7824 9.90778 15.7572 9.9321C15.5841 10.0992 15.2613 10.3534 15.0793 10.4565C15.0409 10.4783 15.0256 10.4898 14.9863 10.513C14.6927 10.6855 14.388 10.8298 14.0676 10.9458L13.7244 11.0485C13.6795 11.0592 13.6436 11.0617 13.6013 11.0757C13.4661 11.1201 13.24 11.145 13.0932 11.1623C13.0001 11.1733 12.933 11.1931 12.8279 11.198C12.5457 11.2111 12.2511 11.2112 11.9684 11.1728C11.8842 11.1614 11.7798 11.158 11.7016 11.1419C11.6542 11.1321 11.6214 11.12 11.571 11.1122C11.4635 11.0953 11.3022 11.0689 11.2077 11.0296C11.065 10.9704 10.8978 10.9412 10.7643 10.8758C10.7253 10.8568 10.682 10.8517 10.6459 10.834L10.0521 10.5349L9.43352 10.0989C9.34344 10.0402 9.26867 9.95252 9.19135 9.88285C9.05518 9.76049 8.94678 9.63213 8.83103 9.49851C8.67519 9.31865 8.5842 9.16581 8.44848 8.97709C8.38272 8.88566 8.34429 8.79738 8.28048 8.69724C8.22028 8.60295 8.1862 8.48795 8.12854 8.39081C8.10272 8.34742 8.10332 8.33376 8.08425 8.28632C8.07029 8.25149 8.05873 8.23047 8.04072 8.17927L7.77453 7.25519C7.68264 6.91874 7.69856 6.4835 7.70276 6.14359C7.70411 6.03369 7.70937 5.96988 7.72934 5.86569C7.7466 5.77501 7.74225 5.68913 7.75876 5.59905C7.76807 5.54831 7.78233 5.52413 7.79179 5.46843C7.799 5.4261 7.80155 5.38135 7.81206 5.34217L7.90559 4.98905C7.91505 4.94716 7.93442 4.92359 7.94538 4.88141L7.98667 4.77316C8.02871 4.66776 8.06098 4.54525 8.11308 4.44211L8.23859 4.18868C8.2461 4.17397 8.24955 4.15941 8.25931 4.14124L8.49112 3.76455C8.51349 3.73017 8.52295 3.7078 8.54637 3.67192L8.70596 3.45347C8.83943 3.24718 9.22243 2.89016 9.40409 2.73132C9.54807 2.60551 9.76246 2.43916 9.92566 2.34773L10.3045 2.13093C10.4894 2.02494 10.7256 1.93035 10.9355 1.85633L11.2794 1.75229C11.3288 1.74208 11.3497 1.74193 11.3982 1.72407C11.5216 1.67842 12.0196 1.62062 12.1789 1.60561L12.178 1.60576ZM12.2516 0.0099736C12.131 0.0227351 12.0544 0.0185313 11.8896 0.0395502C11.766 0.0553144 11.6533 0.0535128 11.5303 0.0814379C11.4716 0.0947999 11.4177 0.0991538 11.3604 0.10606L11.0289 0.174972C10.9664 0.196742 10.9173 0.197943 10.8622 0.214908C10.7583 0.246586 10.6561 0.281718 10.5522 0.307091C10.4989 0.320153 10.4705 0.338769 10.4068 0.354984L10.256 0.410234C10.2252 0.421344 10.2183 0.429751 10.1934 0.44011C10.1653 0.451821 10.1398 0.454523 10.115 0.465333L9.56654 0.71771C9.30921 0.852982 9.06208 1.00387 8.82367 1.16631C8.73254 1.22832 8.51334 1.39092 8.42791 1.46944L8.26277 1.61372C8.10888 1.75004 7.99568 1.87855 7.85815 2.01082L7.40354 2.5411C7.25566 2.73492 7.13105 2.93746 6.99713 3.14389L6.71758 3.66516C6.67494 3.75389 6.63605 3.85058 6.59897 3.94696C6.5721 4.01693 6.53351 4.08088 6.50964 4.15655C6.50018 4.18673 6.49763 4.2091 6.48562 4.23567C6.42421 4.372 6.32482 4.71476 6.2978 4.85228C6.28639 4.91083 6.26597 4.94281 6.25636 5.00241C6.24345 5.08289 6.24285 5.09805 6.22078 5.17492L6.16433 5.51693C6.11794 5.82035 6.0798 6.35873 6.10863 6.653C6.11463 6.7144 6.11028 6.77701 6.11704 6.83947C6.13355 6.9911 6.15142 7.24558 6.18234 7.37034C6.19616 7.42634 6.19916 7.47739 6.20637 7.53955C6.21462 7.61071 6.23144 7.63984 6.2454 7.70845C6.26702 7.81429 6.28308 7.9293 6.31611 8.03874L6.40815 8.34787C6.42917 8.43886 6.48111 8.55401 6.50919 8.64709L6.56324 8.78792C6.57285 8.81344 6.61053 8.89527 6.62855 8.9286C6.66158 8.9897 6.6838 9.07648 6.71682 9.13773C6.77493 9.24508 6.82117 9.36008 6.88618 9.46127L7.10598 9.83736C7.28073 10.1322 7.67033 10.6167 7.90785 10.8454L8.4141 11.324C8.55733 11.4435 8.71587 11.5666 8.87562 11.665C9.06058 11.7786 9.29029 11.957 9.50003 12.0492C9.53051 12.0625 9.53456 12.0672 9.55888 12.0813L9.89984 12.2445C9.96229 12.27 9.98361 12.2834 10.0461 12.3027C10.1088 12.3222 10.1875 12.3709 10.256 12.3918C10.2891 12.402 10.3051 12.403 10.3349 12.4162C10.4547 12.4695 10.8172 12.5802 10.9497 12.6027C11.0167 12.614 11.0433 12.6347 11.1 12.6446C11.176 12.6579 11.2014 12.6573 11.2748 12.6796L11.6138 12.7398C11.7367 12.7563 11.8583 12.7567 11.978 12.7769C12.1944 12.813 12.5213 12.7979 12.747 12.7931C12.898 12.7898 13.3385 12.7531 13.4708 12.7221C13.5297 12.7082 13.584 12.7018 13.64 12.6956C13.7124 12.6877 13.7433 12.6715 13.8086 12.6581C13.9068 12.6378 14.0448 12.6173 14.1386 12.5883C14.3685 12.5176 14.6016 12.4532 14.8076 12.3634C14.9204 12.3143 15.0336 12.2861 15.1642 12.2158L15.3645 12.1178C15.3879 12.1049 15.4113 12.1 15.4358 12.0865L15.9357 11.7963C15.9802 11.7694 16.0181 11.742 16.0608 11.7145C16.2396 11.5993 16.366 11.4831 16.5209 11.3734C16.6163 11.3057 16.9667 10.9907 17.0449 10.9003C17.0808 10.8587 17.1057 10.8325 17.1445 10.7937L17.6866 10.1439C17.8504 9.90672 18.0194 9.66441 18.1471 9.40257C18.1642 9.36729 18.1682 9.36744 18.1817 9.34492C18.1978 9.31805 18.1975 9.30393 18.2149 9.27496C18.2359 9.24043 18.2325 9.25529 18.2503 9.20649L18.3089 9.07288C18.3271 9.03474 18.328 9.04975 18.3442 9.00276C18.3661 8.93895 18.3825 8.91929 18.405 8.85893L18.5656 8.42489C18.59 8.36799 18.5936 8.32715 18.6168 8.26785C18.629 8.23662 18.6326 8.23903 18.6417 8.20014C18.6488 8.17026 18.6517 8.13783 18.6584 8.11426C18.6781 8.0464 18.689 8.03889 18.7024 7.95527C18.712 7.89492 18.7339 7.86234 18.7447 7.79973C18.7566 7.73052 18.7613 7.68803 18.7781 7.62873L18.8386 7.28777C18.8537 7.16946 18.8569 7.0387 18.8734 6.91814C18.9112 6.63964 18.9133 6.24914 18.8871 5.96178L18.8224 5.43045C18.8061 5.36604 18.8049 5.33091 18.7976 5.26245L18.7255 4.93125C18.7021 4.86579 18.7054 4.8242 18.6872 4.7628L18.3467 3.80944C18.3196 3.73122 18.2826 3.67297 18.2478 3.59715C18.2322 3.56307 18.2305 3.56832 18.2155 3.53875C18.2029 3.51398 18.2008 3.49461 18.1858 3.46608C18.1655 3.4278 18.1331 3.37465 18.1145 3.34222L18.0061 3.1517C17.9878 3.11912 17.9852 3.11281 17.9691 3.08669L17.7361 2.72411C17.7055 2.67607 17.6785 2.6486 17.6486 2.60536C17.5914 2.52308 17.5262 2.45913 17.471 2.38181C17.3096 2.156 17.0827 1.94131 16.893 1.75694C16.8024 1.66897 16.6837 1.54826 16.589 1.47649C16.5448 1.44301 16.5179 1.4295 16.4688 1.39032C16.3222 1.27276 16.1689 1.14905 16.007 1.05026L15.4418 0.721764C15.3359 0.665163 15.2178 0.597002 15.1026 0.557066C15.0037 0.522835 14.8336 0.434856 14.7477 0.408132C14.5695 0.352582 14.2011 0.222114 14.0514 0.198843C13.9865 0.188634 13.9596 0.167315 13.8997 0.157706C13.8281 0.146146 13.7943 0.141492 13.7271 0.122725L13.387 0.0629713C13.0959 0.0201828 12.5261 -0.0191526 12.2511 0.0101237L12.2516 0.0099736Z" fill="#828282"/>
<path d="M17.5015 17C17.2805 17 17.0015 17.1791 17.0015 17.4V18.5H15.9015C15.6805 18.5 15.5015 18.7791 15.5015 19C15.5015 19.2209 15.6805 19.5 15.9015 19.5H17.0015C17.0015 19.5 17.0015 20.5 17.0015 20.6C17.0015 20.7 17.2209 20.9756 17.5015 21C17.782 21.0244 18.1015 20.8209 18.1015 20.6V19.5H19.1015C19.3224 19.5 19.5015 19.2209 19.5015 19C19.5015 18.7791 19.3224 18.5 19.1015 18.5H18.0015V17.4C18.0015 17.1791 17.7224 17 17.5015 17Z" fill="#828282"/>
</svg>
