<svg width="24" height="24" viewBox="0 0 24 24" fill="none" xmlns="http://www.w3.org/2000/svg">
<path fill-rule="evenodd" clip-rule="evenodd" d="M5.65877 22.4245C5.03609 22.4245 4.10274 22.4578 3.51646 22.4133C3.38603 22.4034 3.28626 22.3824 3.16143 22.3511L2.88038 22.24C2.7862 22.1852 2.76763 22.1925 2.61716 22.0976L2.46329 21.985C2.28423 21.849 2.14141 21.6807 2.01673 21.4935C1.93258 21.3672 1.84474 21.1907 1.79493 21.044C1.75867 20.9376 1.74157 20.8228 1.71623 20.7171C1.66155 20.4894 1.68572 20.1848 1.68572 19.9474V8.13564C1.68542 7.79549 1.70355 7.89777 1.73715 7.64207L1.79448 7.4322C1.88674 7.14363 2.10339 6.81748 2.32078 6.61557C2.53492 6.41675 2.71693 6.32582 2.9607 6.18994L3.14183 6.09399C3.25369 6.03666 3.36953 5.96047 3.4864 5.90535L3.65751 5.80985C3.78632 5.75428 3.88786 5.68163 4.01004 5.6181L4.53397 5.3316C4.57082 5.30861 4.58998 5.31038 4.62888 5.28753L5.83268 4.62698C5.98699 4.55403 6.11815 4.47636 6.26863 4.39073L7.14229 3.92147C7.28584 3.86105 7.43926 3.74462 7.58414 3.67918L7.83807 3.53991C7.85885 3.52797 7.86666 3.52694 7.88391 3.51648L8.10218 3.39946C8.25191 3.30336 8.67917 3.08421 8.88152 2.97456C9.00193 2.90942 9.29963 2.73197 9.40633 2.6885L10.1051 2.31003C10.1668 2.272 10.2168 2.2527 10.2757 2.21438C10.3107 2.19168 10.3336 2.18947 10.3687 2.16884L10.6237 2.02942C10.7466 1.96501 11.0312 1.79464 11.1426 1.74895L11.3364 1.67733C11.4797 1.61322 11.6263 1.60305 11.7849 1.58212C12.1127 1.53879 12.4161 1.6032 12.7188 1.70091C12.7653 1.71594 12.766 1.72832 12.8139 1.74497L12.9492 1.80673C12.9653 1.81454 12.9767 1.82427 12.9921 1.83311L14.8163 2.82335C14.932 2.88938 15.0458 2.93963 15.1608 3.01111C15.2741 3.08156 15.4051 3.13181 15.518 3.19784L15.8604 3.3887C16.0692 3.49466 16.3511 3.66754 16.5572 3.76923L17.1635 4.1001C17.1914 4.11675 17.2204 4.12456 17.2502 4.14107L17.6037 4.33266C17.7091 4.3841 17.8308 4.47326 17.9458 4.52263C17.9862 4.53988 17.9906 4.54857 18.0369 4.57024C18.0798 4.59013 18.0799 4.59706 18.1271 4.61946L18.8231 4.99955C18.987 5.10272 19.1814 5.18275 19.3425 5.27928L19.6877 5.46719C19.8327 5.53896 19.9795 5.63918 20.1221 5.70447L20.5578 5.94072C20.5781 5.95192 20.5855 5.95295 20.6048 5.96238C20.6364 5.97771 20.6247 5.97432 20.6477 5.98862C20.7886 6.07601 20.9374 6.14454 21.0808 6.22796C21.1887 6.2906 21.3171 6.3494 21.42 6.42147C21.7261 6.63605 21.9989 6.95719 22.1427 7.3084C22.2649 7.60655 22.3035 7.9044 22.3035 8.22819V19.5071C22.3034 19.8575 22.3137 20.2233 22.2966 20.5709C22.2925 20.6546 22.2659 20.7235 22.2547 20.8044C22.2423 20.8934 22.222 20.9348 22.2006 21.0181C22.188 21.067 22.1743 21.0812 22.1613 21.118C22.1454 21.1634 22.1468 21.1708 22.1264 21.2094C22.0958 21.2667 22.0743 21.3279 22.0372 21.3864C21.9731 21.487 21.9007 21.6085 21.8207 21.7029C21.6934 21.8533 21.5528 21.97 21.3918 22.0847C21.3088 22.1438 21.1343 22.2362 21.0425 22.2683C20.899 22.3183 20.8879 22.3325 20.7352 22.3663C20.6994 22.3743 20.6779 22.3884 20.6383 22.3967C20.5702 22.4108 20.4635 22.4138 20.397 22.4189C20.2107 22.4334 20.0511 22.4241 19.8697 22.4241C16.897 22.4337 13.9243 22.4167 10.9516 22.4241H5.65951L5.65877 22.4245ZM20.2844 24C20.5305 24 20.7696 23.9739 21.0014 23.9315C21.0472 23.9231 21.0758 23.9066 21.1196 23.8971C21.1663 23.8871 21.1976 23.8868 21.2427 23.87C21.3651 23.8248 21.403 23.8264 21.5862 23.7509L22.202 23.4403C22.2689 23.4012 22.3297 23.3614 22.39 23.3154C22.6818 23.0926 22.9452 22.8491 23.1655 22.5511C23.3216 22.3402 23.4631 22.1087 23.5729 21.8693C23.6215 21.7632 23.7496 21.4136 23.7736 21.3066L23.8299 21.0475C23.8396 20.9522 23.8623 20.8806 23.8716 20.7924C23.8917 20.6036 23.8877 20.3861 23.8877 20.1905V12.7793C23.8877 11.957 23.8875 11.135 23.8877 10.3127C23.8877 9.89962 23.8877 9.48681 23.8877 9.07371C23.8877 8.72088 23.9259 7.8879 23.8497 7.57015C23.8287 7.48275 23.8314 7.39093 23.8003 7.30707C23.7813 7.25564 23.7838 7.22159 23.7721 7.17237C23.7449 7.05815 23.6178 6.71166 23.5688 6.61203C23.4506 6.3718 23.3138 6.14705 23.1639 5.92804L22.8031 5.51288C22.7227 5.43108 22.6395 5.36889 22.5527 5.30006C22.5261 5.27884 22.501 5.25305 22.4712 5.23123C22.4348 5.20456 22.4183 5.19115 22.3849 5.16653C22.3653 5.15209 22.3573 5.14369 22.3389 5.13219C22.3233 5.12247 22.3122 5.11908 22.2942 5.10714C21.9778 4.89433 21.632 4.74031 21.3038 4.54489L20.8069 4.27857C20.6539 4.2127 20.0557 3.85869 19.8013 3.73239L18.7123 3.14198C18.67 3.12327 18.6478 3.10956 18.6066 3.08583L18.5088 3.03322C18.4749 3.01774 18.4871 3.01848 18.4582 3.00227C18.441 2.99254 18.4165 2.98385 18.403 2.97648L18.2554 2.89173C18.2279 2.87788 18.2273 2.8767 18.2039 2.86344L17.5116 2.48998C17.481 2.47214 17.4879 2.47156 17.4625 2.45814L17.1152 2.27245C17.0155 2.20878 16.9084 2.16 16.8055 2.10738L16.3072 1.84136C16.2798 1.82736 16.2349 1.80127 16.2042 1.78211C16.1687 1.75986 16.1423 1.75338 16.1047 1.73112C15.7815 1.53968 15.4255 1.37859 15.1067 1.18877L14.7552 0.996435C14.7338 0.985382 14.7366 0.983466 14.7104 0.970644L13.9161 0.53838C13.8414 0.496377 13.7761 0.471322 13.7097 0.432119C13.6739 0.410897 13.6307 0.384221 13.6062 0.372726C13.5822 0.361525 13.5717 0.362409 13.5478 0.350324C13.4047 0.27855 13.2205 0.19867 13.0552 0.160057C13.0043 0.148119 12.9918 0.130729 12.9345 0.119233C12.8983 0.112011 12.853 0.104348 12.8117 0.0912309C12.7311 0.0654395 12.6419 0.0621972 12.5601 0.0425957C12.4166 0.00825631 12.1517 0.000297822 11.9933 3.06297e-06C11.6181 -0.000439075 11.374 0.0470171 11.0316 0.121886L10.6846 0.237579C10.6109 0.273834 10.5345 0.292109 10.4645 0.33028C10.3625 0.38599 10.2588 0.427551 10.1614 0.490334L9.15889 1.03947C8.99795 1.13748 8.82743 1.22281 8.66443 1.30917L8.36466 1.47306C8.32958 1.49207 8.30099 1.50209 8.26636 1.52464C8.24027 1.54174 8.25088 1.53732 8.21492 1.55471L6.67112 2.39683C6.63221 2.41526 6.616 2.42882 6.56648 2.45387L5.96783 2.78238C5.92951 2.80449 5.9049 2.82276 5.87321 2.83794C5.80556 2.87007 5.74057 2.90647 5.67631 2.94199L5.28104 3.16041C5.21958 3.1974 5.13911 3.23365 5.07736 3.26976L4.67192 3.49009C4.56979 3.54271 4.47708 3.58751 4.37495 3.65545L4.02758 3.84056C3.99972 3.85456 3.99648 3.86031 3.97658 3.87122L2.88553 4.47135C2.83985 4.49375 2.82083 4.50672 2.77898 4.52455L2.38326 4.744C2.34951 4.76448 2.31871 4.77421 2.28482 4.79617C2.19064 4.85689 2.08349 4.90435 1.98593 4.9605C1.94584 4.98349 1.92079 4.99646 1.88984 5.014L1.6978 5.13544C1.51387 5.25924 1.34807 5.38981 1.18993 5.55429C1.08618 5.66202 0.980213 5.76858 0.890459 5.89149C0.888985 5.89341 0.886921 5.89606 0.885448 5.89798C0.883974 5.89989 0.881763 5.90255 0.880289 5.90432C0.878226 5.90697 0.871741 5.91419 0.869678 5.91684C0.868204 5.91876 0.865994 5.92141 0.86452 5.92318C0.811905 5.99201 0.745437 6.06879 0.70476 6.14558L0.532327 6.43621C0.493566 6.49678 0.467185 6.58388 0.430782 6.6474C0.394085 6.71137 0.372125 6.79743 0.345302 6.86302C0.33248 6.89426 0.32909 6.88748 0.318184 6.91681L0.203671 7.33537C0.188343 7.42881 0.165499 7.48673 0.154298 7.59933C0.14575 7.68466 0.124233 7.77412 0.117601 7.8621C0.088862 8.24632 0.110085 8.70408 0.110085 9.09626V20.2014C0.110085 20.4036 0.101684 20.6094 0.139708 20.7991C0.157099 20.8862 0.151646 20.984 0.177732 21.0744C0.201755 21.1573 0.208387 21.2493 0.236241 21.3158C0.257169 21.3659 0.253337 21.3967 0.269549 21.4449C0.342502 21.6604 0.429603 21.8886 0.542348 22.0867C0.730847 22.4183 0.935999 22.7166 1.20541 22.9754C1.27556 23.0429 1.36649 23.1331 1.44711 23.1854C1.50886 23.2255 1.55912 23.2724 1.62411 23.3209C1.67953 23.3621 1.75012 23.4031 1.8048 23.4414C1.85167 23.4742 1.85005 23.4715 1.90752 23.501C1.93022 23.5126 1.9678 23.538 2.00126 23.5577C2.13242 23.6345 2.50176 23.8041 2.64884 23.8358C2.71207 23.8495 2.72032 23.8563 2.77279 23.8743C2.81789 23.8899 2.85164 23.887 2.89806 23.8993C2.94699 23.9123 2.96423 23.9263 3.01744 23.9335C3.25221 23.9654 3.47004 23.9991 3.71307 23.9991H20.2841L20.2844 24Z" fill="#828282"/>
<path fill-rule="evenodd" clip-rule="evenodd" d="M10.6034 20.3194C10.647 20.3281 10.6613 20.3279 10.704 20.3466C10.8168 20.3962 11.0135 20.4094 11.136 20.4476C11.3773 20.5229 11.8754 20.5251 12.1326 20.5255C12.3601 20.526 12.8707 20.479 13.1012 20.4068L13.4292 20.3183C13.4759 20.3067 13.4854 20.2933 13.5218 20.2818C13.5611 20.2696 13.594 20.269 13.6297 20.2532C13.6672 20.2367 13.6751 20.2327 13.7216 20.218L14.1947 20.0068C14.2319 19.9847 14.2456 19.9833 14.2795 19.9648C14.4488 19.8724 14.6237 19.772 14.7794 19.6541C14.8336 19.613 14.8811 19.5795 14.9303 19.5381C14.9826 19.4942 15.0261 19.4699 15.0822 19.4242C15.3238 19.227 15.647 18.8662 15.7905 18.6848C16.1515 18.2286 16.4129 17.6947 16.5868 17.1423L16.6937 16.7148C16.7301 16.482 16.6697 16.2423 16.5308 16.0713C16.4464 15.9673 16.3565 15.9114 16.2169 15.8408C16.1899 15.8271 16.0349 15.7872 15.9994 15.7821C15.875 15.7648 15.7561 15.7982 15.6408 15.8252C15.5945 15.8361 15.5945 15.8448 15.5525 15.865C15.33 15.9723 15.2016 16.1633 15.1301 16.3913C15.1189 16.4268 15.1176 16.4714 15.1071 16.5087C15.0946 16.5534 15.0825 16.5625 15.0738 16.6135C15.052 16.7404 14.9552 16.9991 14.8979 17.1091L14.7604 17.3763C14.7505 17.3952 14.7276 17.4307 14.7114 17.4562C14.694 17.4838 14.6784 17.5059 14.657 17.5401L14.6478 17.5538C14.524 17.7368 14.3898 17.9074 14.2277 18.0605C14.0352 18.2423 13.8419 18.3865 13.617 18.5271C13.4784 18.6136 13.2161 18.7286 13.0624 18.7823C13.0186 18.7977 12.9975 18.7952 12.9557 18.8142C12.9121 18.8338 12.915 18.8341 12.8581 18.8444C12.714 18.8706 12.5615 18.9237 12.4099 18.9361C12.2534 18.9489 12.0421 18.962 11.8959 18.9493C11.8073 18.9417 11.7142 18.9439 11.6231 18.9362C11.54 18.9293 11.482 18.907 11.4025 18.8961C11.1835 18.8664 10.7953 18.739 10.59 18.6188C10.558 18.6 10.5289 18.5924 10.4962 18.5735C10.4709 18.5589 10.4426 18.539 10.419 18.5233C10.387 18.5019 10.3639 18.4955 10.3304 18.4727L10.1315 18.3365C9.94959 18.2133 9.79072 18.0488 9.63789 17.8922L9.60753 17.8527C9.52308 17.7382 9.49699 17.7252 9.404 17.5824L9.08772 17.0175C9.04999 16.95 8.93769 16.6032 8.92295 16.5111C8.90099 16.3751 8.85589 16.2315 8.77306 16.117C8.68699 15.9981 8.54374 15.8703 8.39327 15.8249C8.14316 15.7494 7.86137 15.7627 7.64988 15.9285C7.47082 16.0688 7.2751 16.3218 7.33317 16.6828L7.50191 17.3295C7.67258 17.8129 7.88451 18.165 8.14817 18.5707C8.20786 18.6625 8.37204 18.8585 8.45679 18.9458C8.48302 18.9728 8.49599 18.9934 8.52311 19.0184L8.93297 19.4077C9.03127 19.4998 9.13267 19.5655 9.24173 19.6435C9.26295 19.6587 9.29656 19.6874 9.32014 19.7041C9.35683 19.73 9.37246 19.7278 9.40797 19.7546C9.54194 19.8564 9.69315 19.9259 9.83729 20.0093L10.1064 20.1332C10.2159 20.1813 10.5082 20.3002 10.6035 20.3194H10.6034Z" fill="#828282"/>
</svg>
