<svg width="25" height="24" viewBox="0 0 25 24" fill="none" xmlns="http://www.w3.org/2000/svg">
<path fill-rule="evenodd" clip-rule="evenodd" d="M23.5328 4.45721C23.5655 4.4632 23.5952 4.46865 23.6194 4.46865C24.2122 4.57643 24.5894 5.14229 24.4816 5.70815L22.7302 14.4655C22.4338 15.8397 21.2212 16.8367 19.82 16.8367H8.61065C7.15558 16.8367 5.91608 15.7589 5.70051 14.3308L4.02988 2.95969C4.00294 2.82496 3.89515 2.71718 3.76043 2.71718H1.57783C0.985022 2.71718 0.5 2.23216 0.5 1.63935C0.5 1.04655 0.985022 0.561523 1.57783 0.561523H3.76043C4.97298 0.561523 5.99692 1.45073 6.15859 2.63634L6.42805 4.4417H23.4038C23.4483 4.4417 23.4928 4.44987 23.5328 4.45721ZM13.4992 7.4732C13.4992 7.03721 13.8526 6.68377 14.2886 6.68377C14.7246 6.68377 15.078 7.03721 15.078 7.4732V9.84147H17.4463C17.8823 9.84147 18.2357 10.1949 18.2357 10.6309C18.2357 11.0669 17.8823 11.4203 17.4463 11.4203H15.078V13.7886C15.078 14.2246 14.7246 14.578 14.2886 14.578C13.8526 14.578 13.4992 14.2246 13.4992 13.7886V11.4203H11.1309C10.6949 11.4203 10.3415 11.0669 10.3415 10.6309C10.3415 10.1949 10.6949 9.84147 11.1309 9.84147H13.4992V7.4732Z" fill="#9F5DE2"/>
<path d="M18.6881 17.8337C17.1522 17.8337 15.8857 19.0732 15.8857 20.6361C15.8857 22.172 17.1252 23.4384 18.6881 23.4384C20.224 23.4384 21.4904 22.1989 21.4904 20.6361C21.4635 19.1002 20.224 17.8337 18.6881 17.8337Z" fill="#9F5DE2"/>
<path d="M11.817 20.5013C11.7631 19.0193 10.5236 17.8337 9.04155 17.8337C7.4787 17.9146 6.29309 19.208 6.34698 20.7439C6.40087 22.2259 7.61343 23.4115 9.09544 23.4115H9.14933C10.6852 23.3306 11.8978 22.0372 11.817 20.5013Z" fill="#9F5DE2"/>
</svg>
