<svg width="24" height="24" viewBox="0 0 24 24" fill="none" xmlns="http://www.w3.org/2000/svg">
<path fill-rule="evenodd" clip-rule="evenodd" d="M19.5946 19.0717C19.5863 19.1263 19.56 19.1507 19.5305 19.1835L19.2767 19.4452C19.1745 19.5474 19.1644 19.5425 19.0942 19.6062L18.9231 19.7678C18.8589 19.8289 18.8099 19.8723 18.7407 19.929C18.6743 19.9835 18.6208 20.0293 18.5547 20.0869L18.1671 20.3752C18.1367 20.3985 18.109 20.4295 18.0733 20.4532C18.039 20.4759 18.007 20.4939 17.9711 20.5232C17.9145 20.5693 17.8662 20.5879 17.8127 20.6282C17.666 20.7389 17.5145 20.8314 17.3529 20.9245C17.3182 20.9445 17.2773 20.9737 17.2479 20.9911L16.9172 21.1656C16.8031 21.2187 16.6964 21.2949 16.5817 21.3452L16.4724 21.3964C16.4444 21.409 16.4348 21.4045 16.405 21.4207L16.2865 21.4741C16.1582 21.5384 15.8676 21.6734 15.7494 21.7051L15.5105 21.7985C15.4822 21.8088 15.459 21.8077 15.4356 21.8152C15.4079 21.8241 15.4053 21.8311 15.3821 21.8421C15.335 21.8645 15.2951 21.8555 15.2495 21.8807C15.2066 21.9044 15.0386 21.9536 14.9888 21.9625C14.9181 21.9752 14.9372 21.9963 14.8595 22.0072C14.7706 22.0197 14.7937 22.0155 14.7252 22.0444C14.6701 22.0677 14.6374 22.0535 14.5829 22.0729C14.4484 22.1202 14.4438 22.1031 14.3228 22.1454C14.2671 22.1649 14.2268 22.1554 14.1719 22.1682C14.1128 22.1819 14.114 22.1993 14.0382 22.2071C13.9847 22.2125 13.9367 22.2099 13.8856 22.2253C13.8332 22.2411 13.8122 22.2564 13.751 22.2604C13.6948 22.264 13.6415 22.2624 13.5934 22.2755C13.4675 22.3099 13.4291 22.3038 13.3035 22.3152C13.198 22.3249 13.1168 22.3574 13.0066 22.3608C12.4922 22.3763 11.8964 22.4608 11.3889 22.3799C11.2813 22.3628 11.1724 22.3626 11.0588 22.3611C10.9416 22.3596 10.8799 22.3348 10.7725 22.3185C10.6618 22.3017 10.5736 22.3178 10.464 22.2847C10.3667 22.2554 10.2563 22.272 10.1669 22.2382C10.0665 22.2002 9.98566 22.2204 9.88139 22.1795C9.82717 22.1582 9.79112 22.1664 9.73302 22.1551C9.68327 22.1453 9.66584 22.1226 9.61355 22.1147C9.54488 22.1045 9.53386 22.1165 9.46862 22.0878C9.3986 22.0569 9.40188 22.0706 9.32949 22.0568C9.27422 22.0461 9.26826 22.0236 9.20153 22.0128C9.13449 22.0021 9.12317 21.9911 9.0697 21.9716C9.00877 21.9495 8.99656 21.971 8.93131 21.9384C8.87068 21.9081 8.85847 21.9212 8.79858 21.8996L8.4308 21.7642C8.36972 21.7489 8.36347 21.7337 8.30537 21.716C8.27349 21.7063 8.26649 21.7115 8.23357 21.6966C8.20482 21.6836 8.20989 21.6796 8.18158 21.669C8.15864 21.6604 8.14509 21.6616 8.11932 21.6515L7.94578 21.5715C7.9139 21.5581 7.90407 21.563 7.87457 21.5512C7.84374 21.5387 7.85 21.5344 7.82393 21.5217C7.79845 21.5094 7.77998 21.5095 7.75615 21.4982L7.64979 21.4438C7.62551 21.4286 7.63355 21.427 7.59885 21.4142L7.36393 21.306C7.22927 21.2473 7.09491 21.1658 6.96367 21.0988C6.81814 21.0243 6.68452 20.9289 6.53704 20.8489C6.45094 20.8022 5.94254 20.4622 5.85525 20.3845C5.84214 20.3729 5.84661 20.3755 5.83022 20.3646L5.12131 19.8009C5.02597 19.7212 4.95462 19.626 4.85765 19.549C4.82622 19.5241 4.80462 19.4981 4.77512 19.4713L4.60322 19.2992C4.5703 19.2657 4.54989 19.2378 4.51965 19.2112C4.39959 19.1048 4.41866 19.1038 4.49373 19.0206L4.66176 18.8444C4.74593 18.7531 4.83962 18.6818 4.92721 18.5945C5.09777 18.4242 5.28755 18.2764 5.46899 18.1156L6.04919 17.6769C6.14423 17.6022 6.54568 17.3578 6.672 17.28L6.88725 17.1515C6.92181 17.1335 6.923 17.1311 6.94505 17.1177L7.10682 17.038C7.13468 17.0246 7.18265 16.9982 7.21691 16.9767C7.36155 16.8859 7.51796 16.8272 7.6705 16.7548C7.77715 16.7043 7.91762 16.6295 8.0289 16.5969L8.51422 16.4056C8.53969 16.3979 8.56293 16.397 8.58825 16.3882L9.70323 16.0605C9.83536 16.0267 10.0134 16.0076 10.1334 15.9739C10.2233 15.9488 10.3301 15.9429 10.4233 15.9206C10.5188 15.8977 10.6202 15.9029 10.7239 15.8877C10.7679 15.8813 10.8155 15.8662 10.8672 15.8588C11.0254 15.8364 11.1836 15.8448 11.3348 15.8244C11.5499 15.7952 11.7675 15.809 11.9871 15.7985C12.2271 15.7868 13.0477 15.8375 13.2667 15.8814C13.3714 15.9024 13.4797 15.8963 13.5788 15.9152C13.6254 15.9242 13.668 15.9395 13.7197 15.9458C13.7776 15.9529 13.8225 15.9532 13.8707 15.9675L14.3006 16.0532C14.3513 16.0615 14.3762 16.0778 14.4238 16.0892C14.5762 16.1259 14.9766 16.2188 15.103 16.271C15.1506 16.2906 15.1911 16.2935 15.2361 16.3089C15.2905 16.3277 15.2936 16.3364 15.365 16.3538C15.4138 16.3657 15.4271 16.3825 15.4807 16.3965C15.5393 16.4119 15.5567 16.4262 15.6063 16.4426L16.0921 16.6338C16.1303 16.6522 16.1756 16.6718 16.2099 16.6875L17.387 17.2976C17.4208 17.3138 17.4087 17.3059 17.4391 17.3259C17.4716 17.3472 17.5112 17.376 17.5427 17.394L17.855 17.5982C17.878 17.6131 17.8896 17.6243 17.9079 17.6359L18.1507 17.806C18.2808 17.899 18.4188 18.0009 18.5401 18.1035C18.6642 18.2084 18.7895 18.3028 18.9037 18.4166C18.9904 18.503 19.0913 18.5761 19.1802 18.6558C19.211 18.6834 19.2295 18.7087 19.2585 18.7373C19.2789 18.7574 19.2842 18.7594 19.3062 18.7817L19.3925 18.8674C19.4071 18.8826 19.4135 18.8918 19.4303 18.9092L19.5943 19.0717H19.5946ZM3.36401 17.8187C3.28953 17.6676 3.18078 17.5558 3.1063 17.4038L2.86737 16.9787C2.81195 16.8918 2.75729 16.7825 2.71349 16.697C2.66374 16.5996 2.62352 16.4902 2.5681 16.3959C2.55097 16.3667 2.55112 16.3471 2.53518 16.314L2.24441 15.6085C2.23011 15.5564 2.22668 15.5713 2.20925 15.529C2.16993 15.4338 2.1172 15.2227 2.07146 15.1165C2.04569 15.0565 2.04555 15.0014 2.01903 14.9395C1.96764 14.8198 1.86768 14.3823 1.84206 14.2335C1.83149 14.1716 1.80765 14.1252 1.79886 14.0584C1.78844 13.9793 1.77995 13.9428 1.76133 13.8676L1.67806 13.2853C1.65124 13.151 1.60775 12.6296 1.60223 12.4768C1.59166 12.1848 1.60223 11.8922 1.60134 11.6061C1.60074 11.4039 1.67537 10.572 1.71962 10.3893C1.73749 10.3158 1.74151 10.2684 1.75075 10.1936C1.75984 10.119 1.77875 10.0858 1.79082 10.0158C1.80333 9.94202 1.80348 9.89733 1.82761 9.8221L1.90537 9.46489C1.92652 9.36017 1.97777 9.22491 2.00086 9.11438L2.22355 8.44271C2.23964 8.40756 2.23979 8.39832 2.25379 8.35706L2.51031 7.73261C2.52237 7.70461 2.53042 7.69969 2.54546 7.6632L2.99786 6.7873C3.05729 6.66843 3.25958 6.33773 3.33853 6.23376C3.37682 6.18326 3.39633 6.14289 3.43 6.09701C3.46232 6.05307 3.48601 6.01598 3.52086 5.9698L3.80419 5.58846C3.90682 5.43815 4.08349 5.24227 4.2113 5.10254L4.52323 4.76052C4.69111 4.5925 4.85273 4.42655 5.03581 4.26493L5.21545 4.11209C5.31347 4.02138 5.46765 3.88567 5.57758 3.80985C5.60693 3.78959 5.61676 3.78616 5.64446 3.76188C5.78598 3.63839 5.94239 3.54663 6.09403 3.43238L6.98765 2.88256L8.43825 2.22445C8.59674 2.15175 8.76283 2.11288 8.92207 2.05612C8.9547 2.0445 8.9824 2.04406 9.01577 2.03452C9.05197 2.02424 9.07014 2.01158 9.09949 2.00339C9.16682 1.98432 9.2054 1.97553 9.26826 1.95453C9.37805 1.91788 9.51837 1.90284 9.62517 1.865L10.7555 1.66495C10.8769 1.63769 11.036 1.64335 11.1634 1.6286C11.5793 1.58049 12.0285 1.57915 12.4547 1.59717C12.6372 1.60492 13.5103 1.68416 13.6531 1.72438C13.7181 1.74271 13.7849 1.74017 13.8533 1.75313L14.5892 1.91073C14.7022 1.94976 14.8163 1.96928 14.9294 2.00443C14.9656 2.0156 14.9757 2.02797 15.0137 2.03691C15.1231 2.06282 15.3338 2.12643 15.4304 2.17023L16.158 2.45072C16.196 2.46502 16.1914 2.47009 16.2263 2.48588C16.3529 2.54323 16.4883 2.59551 16.6097 2.66344C16.6377 2.67923 16.6446 2.68191 16.6787 2.69785C16.718 2.71632 16.7125 2.72153 16.7518 2.73866C16.7941 2.75714 16.7902 2.75669 16.827 2.77829C16.8813 2.81002 16.9197 2.82402 16.9723 2.85068L18.4403 3.8237C18.4741 3.85081 18.4795 3.84515 18.51 3.86839L19.2706 4.55094C19.3536 4.60992 19.4208 4.69483 19.4882 4.76916L19.9143 5.23676C19.9529 5.27936 19.9828 5.3163 20.0208 5.3595C20.0521 5.39525 20.044 5.38438 20.0698 5.42564C20.116 5.49938 20.2478 5.64268 20.3101 5.72327L21.3279 7.37496C21.3807 7.46657 21.4212 7.56965 21.4726 7.67839L21.6707 8.14375C21.7021 8.23015 21.7419 8.29986 21.765 8.38253C21.7773 8.42663 21.7834 8.42126 21.7989 8.46253C21.8308 8.54639 21.8511 8.65096 21.8794 8.71412C21.9199 8.80439 21.992 9.03439 22.0105 9.13196L22.1511 9.65735C22.17 9.72855 22.1652 9.76833 22.1915 9.84623C22.2131 9.91088 22.2096 9.96168 22.2226 10.0335C22.2585 10.2328 22.2999 10.412 22.3145 10.6077C22.3196 10.6757 22.3331 10.7299 22.3447 10.7939C22.3677 10.9176 22.364 11.0781 22.3777 11.2052C22.4225 11.6231 22.4238 12.0707 22.4051 12.4896C22.3893 12.8432 22.3392 13.1685 22.3066 13.5158C22.3 13.5849 22.2787 13.6364 22.2697 13.6956C22.2595 13.7624 22.2601 13.824 22.2446 13.8877C22.1892 14.1162 22.1051 14.6029 22.0313 14.787C21.9848 14.9029 21.9813 15.0171 21.9296 15.132L21.8737 15.2941C21.8622 15.3254 21.8624 15.3534 21.8511 15.3851C21.8389 15.4193 21.8296 15.4214 21.8183 15.4572C21.8065 15.4947 21.8094 15.5044 21.7909 15.5433L21.7259 15.708C21.7134 15.7374 21.7139 15.7569 21.7024 15.7865C21.6899 15.8186 21.6783 15.8256 21.6649 15.8652L21.1338 16.9955C21.1155 17.0277 21.1122 17.0465 21.0975 17.0737L20.8947 17.4208C20.8152 17.5569 20.7181 17.6779 20.6457 17.8203L20.5666 17.8178L20.3994 17.6428C20.2289 17.4703 20.0592 17.3198 19.876 17.1577C19.8438 17.1293 19.8127 17.0999 19.7786 17.0719L19.6668 16.9887C19.5249 16.8799 19.3843 16.7481 19.2402 16.6475C19.2063 16.6239 19.1675 16.586 19.1394 16.5652L18.9694 16.4494C18.8091 16.3215 18.6478 16.2163 18.4582 16.1005C18.3783 16.0517 18.3018 16.0028 18.2237 15.957L17.7388 15.6738C17.6591 15.6221 17.5763 15.5896 17.4893 15.5461C17.3573 15.4803 17.2417 15.408 17.1059 15.356L15.5075 14.7431C15.477 14.7325 15.4737 14.7256 15.442 14.7161L15.1436 14.637C15.0824 14.6147 15.0614 14.612 14.9984 14.6002C14.9418 14.5896 14.9094 14.568 14.8439 14.5573C14.7769 14.5464 14.7621 14.5418 14.6978 14.5211C14.6421 14.5031 14.5911 14.5058 14.5356 14.4883C14.4447 14.4597 14.31 14.4396 14.218 14.4185C14.1645 14.4061 14.1095 14.4051 14.0532 14.3967C13.9972 14.3884 13.9539 14.3704 13.8965 14.3626C13.8393 14.3549 13.7827 14.3529 13.7288 14.3455C13.6689 14.337 13.6239 14.3228 13.5636 14.3154C13.505 14.3082 13.4498 14.3045 13.3958 14.3009C13.2747 14.293 13.1702 14.2661 13.0522 14.2597C12.9262 14.253 12.8095 14.249 12.6854 14.2408C12.4455 14.225 12.2101 14.2123 11.9637 14.2119C11.8161 14.2116 11.0332 14.2473 10.8672 14.2685C10.7527 14.2831 10.6482 14.2986 10.5307 14.3076C10.3074 14.3251 10.0762 14.3808 9.85696 14.4076C9.70427 14.4262 9.53863 14.4868 9.38609 14.5049C9.3201 14.5126 9.2991 14.5278 9.24055 14.543C9.13494 14.5704 9.01816 14.5877 8.92431 14.6173L8.63264 14.7033C8.48159 14.7359 8.33606 14.7877 8.19886 14.8426C8.14002 14.8661 8.12081 14.8552 8.05854 14.8858C7.96797 14.9302 7.86608 14.9486 7.77388 14.9909L7.56339 15.0675C7.49487 15.0955 7.43737 15.1336 7.36542 15.1546C7.29913 15.174 7.29452 15.1892 7.23463 15.2086C7.16194 15.232 7.10191 15.268 7.038 15.2981L6.57831 15.5141L5.37693 16.2145C5.34356 16.2358 5.30349 16.2631 5.26729 16.2879C5.07171 16.4217 4.89265 16.5437 4.70854 16.6921L4.49716 16.8592C4.46171 16.8869 4.43281 16.9063 4.39363 16.9385L4.08647 17.2039C3.92038 17.3544 3.74818 17.5006 3.59043 17.6591C3.54649 17.7032 3.49867 17.7659 3.44832 17.8033C3.41495 17.8281 3.41406 17.8202 3.36371 17.8196L3.36401 17.8187ZM0.000297924 11.7318C0.000297924 12.1876 0.00372405 12.4782 0.0397728 12.9341C0.0484126 13.044 0.0499022 13.1545 0.0621171 13.2667C0.074183 13.3792 0.0951867 13.466 0.102933 13.5879C0.110232 13.7045 0.142259 13.7831 0.152388 13.8973C0.164752 14.0353 0.20095 14.2284 0.2367 14.3611C0.250852 14.4137 0.250405 14.4648 0.261279 14.519C0.273047 14.578 0.290178 14.6045 0.298669 14.6655C0.315352 14.7836 0.386407 14.9912 0.403389 15.1L0.52524 15.5168C0.547137 15.5708 0.547584 15.6145 0.565459 15.6598L0.70459 16.0593C0.718443 16.1162 0.736319 16.1338 0.754641 16.1926C0.794414 16.3209 0.904348 16.5762 0.962294 16.718L1.19021 17.212C1.23266 17.2936 1.27526 17.3775 1.30967 17.46L1.69385 18.1522C1.78695 18.2992 1.87603 18.4553 1.9806 18.5986L2.12241 18.8237C2.16814 18.8973 2.21804 18.9523 2.27331 19.0282C2.32321 19.0968 2.36626 19.18 2.42316 19.2445C2.44878 19.2736 2.47977 19.3083 2.50107 19.3388C2.60951 19.4941 2.7342 19.6488 2.86707 19.786C2.94006 19.8615 2.99845 19.9517 3.07696 20.0346L3.61203 20.5885C3.76903 20.7403 4.01884 20.9989 4.18166 21.1069L4.47437 21.3528C4.51101 21.3833 4.53559 21.4094 4.57388 21.4365L5.97293 22.3869L6.39106 22.6102C6.42398 22.6266 6.41087 22.6261 6.44886 22.644L6.62866 22.7395C6.65219 22.7507 6.66858 22.7496 6.69614 22.7632C6.86506 22.8466 7.15017 23.0026 7.31343 23.0501L7.75913 23.2358C7.79518 23.2531 7.79994 23.2446 7.83301 23.254C7.87204 23.265 7.85923 23.2674 7.8856 23.281L8.22642 23.3991C8.29703 23.4117 8.30612 23.4329 8.35974 23.4457C8.38998 23.453 8.41322 23.45 8.43988 23.4603C8.46968 23.4718 8.46119 23.4794 8.49992 23.491C8.57544 23.5136 8.56621 23.4965 8.64411 23.5315C8.69059 23.5524 8.74675 23.5436 8.79426 23.5634L8.93548 23.6041C9.00132 23.6167 8.99804 23.6401 9.06597 23.6483C9.14745 23.658 9.14477 23.6502 9.21612 23.6808C9.27005 23.7039 9.31668 23.696 9.37045 23.7109C9.41573 23.7234 9.45268 23.7451 9.51241 23.7493C9.60119 23.7557 9.59106 23.7567 9.6648 23.7828C9.71917 23.802 9.77265 23.795 9.8297 23.802C9.89092 23.8096 9.91893 23.8321 9.97196 23.8421C10.0266 23.8524 10.085 23.8464 10.1428 23.8537C10.2744 23.8703 10.2173 23.8874 10.4525 23.9011C10.568 23.9078 10.649 23.9426 10.7725 23.9483C11.0126 23.9593 11.2687 24 11.4488 24H12.5602C12.7864 24 12.9889 23.9555 13.2248 23.9496C13.3546 23.9465 13.4194 23.9129 13.5374 23.9024C13.5972 23.8971 13.6515 23.9024 13.7122 23.8932C13.7694 23.8846 13.8012 23.8638 13.8557 23.8558C13.9101 23.8478 13.9683 23.8527 14.0169 23.8454C14.0775 23.8363 14.0984 23.8142 14.1606 23.8049C14.2059 23.798 14.2762 23.8005 14.3248 23.7856C14.4475 23.748 14.4986 23.7521 14.6187 23.7124C14.6687 23.6957 14.7218 23.7061 14.7781 23.6879C14.8378 23.6687 14.8365 23.6565 14.9208 23.6486C15.0052 23.6406 14.9939 23.6184 15.0606 23.6048C15.1307 23.5905 15.1375 23.6048 15.2007 23.5728C15.262 23.5416 15.2856 23.5604 15.3462 23.5352L15.7612 23.4013C15.7973 23.3954 15.8025 23.3994 15.8348 23.383C15.867 23.3668 15.8503 23.3648 15.8972 23.3532C15.9784 23.3331 15.9781 23.3164 16.0332 23.3041L16.2322 23.241C16.2677 23.2275 16.2501 23.2242 16.2917 23.209C16.3146 23.2007 16.3411 23.199 16.3644 23.1895C16.3913 23.1785 16.3958 23.168 16.4239 23.1576C16.452 23.1472 16.468 23.1493 16.4946 23.1371C16.5272 23.1219 16.5121 23.1196 16.5556 23.1056C16.6471 23.0764 16.7551 23.0192 16.815 22.9999L17.0031 22.912C17.0283 22.9004 17.0475 22.8996 17.0715 22.889L17.6088 22.6126C17.6314 22.599 17.6466 22.5996 17.6734 22.5858L18.8014 21.8917L19.4287 21.4298C19.5669 21.3218 19.6983 21.222 19.8301 21.0984C19.8407 21.0885 19.8601 21.072 19.8739 21.0616L20.4002 20.58C20.5809 20.3988 20.7715 20.2177 20.9332 20.0247C20.9683 19.9825 20.9719 19.9631 21.0154 19.9228C21.1075 19.8373 21.1879 19.72 21.2704 19.6281C21.3862 19.4993 21.4811 19.3622 21.5938 19.2298C21.6366 19.1796 21.639 19.1771 21.6684 19.1209C21.7082 19.0448 21.77 18.9718 21.8119 18.8979L22.2466 18.2437C22.2604 18.2189 22.2601 18.2091 22.2768 18.1824L22.5426 17.7256C22.6428 17.5495 22.7323 17.3597 22.8181 17.1771L23.2028 16.2903C23.2463 16.1528 23.3142 16.0161 23.3513 15.8871L23.4393 15.6212C23.4591 15.5731 23.4582 15.5264 23.4788 15.4773C23.5017 15.4229 23.4999 15.3918 23.5186 15.3332L23.7413 14.4676C23.7544 14.4189 23.7554 14.3581 23.7652 14.3085C23.7761 14.2543 23.7938 14.2215 23.8029 14.1624C23.811 14.1112 23.8122 14.0529 23.8235 14.0003C23.8495 13.8803 23.854 13.7723 23.8734 13.6838C23.9508 13.3293 23.9996 12.3469 23.9996 11.9488C23.9996 11.702 23.9747 11.4808 23.9651 11.2483C23.9602 11.1285 23.9572 11.0093 23.9467 10.8954L23.8446 10.0832C23.8174 9.9374 23.7739 9.76192 23.7579 9.6213C23.75 9.55084 23.7371 9.52716 23.7223 9.47115L23.5774 8.87187C23.5571 8.82048 23.5589 8.77535 23.5428 8.72262L23.3435 8.0867C23.2804 7.94086 23.2862 7.92537 23.2468 7.81633C23.237 7.78922 23.2263 7.77879 23.2171 7.75451C23.2077 7.73008 23.2065 7.70893 23.1961 7.6839C23.1829 7.65232 23.1774 7.65798 23.1649 7.62268C23.1024 7.44601 23.0203 7.27128 22.9474 7.09476C22.8797 6.93075 22.7836 6.76198 22.7098 6.6002C22.6318 6.4292 22.5299 6.27115 22.4532 6.11101C22.364 5.92481 22.1965 5.71209 22.1089 5.53945L21.6549 4.88148C21.6287 4.84692 21.5986 4.8149 21.5734 4.78004L20.9068 3.96849L20.5033 3.53561C20.4164 3.43268 20.0229 3.08619 19.887 2.96032L18.8987 2.18423L18.1769 1.7141C18.134 1.68506 18.0962 1.66137 18.0548 1.64111C17.9384 1.58421 17.8246 1.49826 17.7038 1.44255L17.3988 1.28897C17.1953 1.19304 16.9808 1.07789 16.7679 0.99149C16.7369 0.978978 16.7371 0.973466 16.7083 0.960357L16.4475 0.85519C16.4217 0.845955 16.4012 0.844018 16.3772 0.832399L15.9686 0.681203C15.9386 0.667647 15.9404 0.662434 15.9036 0.652602L14.9077 0.353338C14.797 0.331142 14.7164 0.308947 14.6033 0.289582C14.5563 0.281538 14.514 0.260088 14.4597 0.252193C14.3957 0.242957 14.3637 0.243106 14.3033 0.224635C14.108 0.164603 13.8789 0.158049 13.6677 0.115743L13.0063 0.0457313C12.775 0.0354529 12.541 0 12.3075 0L11.356 0.0137045L10.6846 0.0709059C10.5677 0.0941439 10.4701 0.0923564 10.3533 0.107253C10.2952 0.114701 10.2586 0.129448 10.2008 0.138386C10.1495 0.146281 10.0917 0.147323 10.0387 0.157602C9.98745 0.167582 9.94455 0.185458 9.88913 0.191714C9.83372 0.19797 9.78292 0.198566 9.72647 0.213462C9.62652 0.239829 9.52865 0.255768 9.43152 0.283772C9.38237 0.297924 9.3207 0.296434 9.27228 0.309245C9.21955 0.323247 9.19542 0.336803 9.12988 0.348869C9.0618 0.361382 9.05301 0.379257 8.98747 0.389982C8.84029 0.414114 8.7025 0.464463 8.55235 0.504832L7.66513 0.80931C7.63758 0.820333 7.6343 0.827334 7.60287 0.839102L7.47178 0.891537C7.44631 0.900326 7.42545 0.901815 7.40117 0.911945L6.95652 1.10947C6.85806 1.1485 6.75513 1.2124 6.65711 1.2562C6.62821 1.26916 6.63 1.27497 6.59871 1.28971L5.54079 1.88184L5.1012 2.17574C5.06113 2.20568 5.03551 2.22787 4.99514 2.2529C4.95998 2.27465 4.92632 2.30816 4.8931 2.33468C4.78466 2.42093 4.65908 2.49869 4.55242 2.58941L4.27104 2.8124C4.20549 2.86528 4.15231 2.93202 4.07888 2.98684C3.92827 3.09945 3.78572 3.24946 3.64733 3.3801C3.42344 3.59132 3.17915 3.83964 2.98594 4.0823L2.91876 4.15291C2.91727 4.1547 2.91489 4.15708 2.9134 4.15887C2.91191 4.16066 2.90982 4.16319 2.90833 4.16498L2.81002 4.27342C2.74999 4.35073 2.71081 4.40317 2.64586 4.47586L2.02558 5.32226C2.00994 5.3446 2.00711 5.35801 1.99311 5.3814L1.88109 5.54421C1.76833 5.70658 1.67895 5.88906 1.5717 6.05947C1.55889 6.08003 1.55278 6.09642 1.53878 6.11861C1.42899 6.29319 1.30997 6.57473 1.22268 6.71893L0.991193 7.22152C0.926096 7.35797 0.839251 7.6197 0.778475 7.74155C0.737361 7.82393 0.723061 7.92641 0.680458 8.01147C0.633535 8.10502 0.46774 8.68776 0.415902 8.84595L0.273196 9.43659C0.245787 9.52328 0.112764 10.2912 0.105614 10.3676C0.0941439 10.4895 0.0765664 10.5775 0.0637557 10.6908C0.0373894 10.9235 0 11.5192 0 11.7312L0.000297924 11.7318Z" fill="#828282"/>
<path fill-rule="evenodd" clip-rule="evenodd" d="M11.9105 4.79924C12.1165 4.76974 12.4294 4.81711 12.6364 4.85152C12.6945 4.8612 12.7293 4.88161 12.7986 4.89293L13.1826 5.01315C13.2969 5.06767 13.4762 5.14021 13.5846 5.20784C13.6137 5.22586 13.6088 5.22884 13.6481 5.24761C13.7348 5.28873 13.8254 5.36738 13.8882 5.4076C14.0309 5.49876 14.3083 5.76153 14.41 5.88308C14.4476 5.92792 14.4722 5.94758 14.5061 5.99302L14.5861 6.10816C14.7278 6.28573 14.7098 6.29288 14.7874 6.41071L14.8912 6.60525C14.922 6.66215 14.9944 6.82303 15.0113 6.88679C15.0361 6.98108 15.1239 7.20661 15.1504 7.35423C15.1601 7.4083 15.1629 7.47489 15.1718 7.52837C15.2107 7.75985 15.1975 7.65811 15.2104 7.89422C15.2235 8.13315 15.1908 8.41514 15.1483 8.63709L14.8939 9.39113L14.7107 9.71319C14.6033 9.92308 14.1952 10.3734 14.0013 10.5048C13.8909 10.5794 13.8051 10.6652 13.6503 10.7495C13.6179 10.7672 13.6107 10.7744 13.5855 10.7888C13.4412 10.8714 13.0962 11.0254 12.9501 11.0586L12.2969 11.1964C12.237 11.2013 12.1758 11.2001 12.1126 11.2037C11.9891 11.2107 11.8421 11.205 11.7223 11.1966C11.647 11.1912 11.6137 11.1809 11.5427 11.1671C11.4864 11.156 11.4284 11.1572 11.3703 11.1464C11.2065 11.1157 10.7658 10.97 10.6178 10.8904C10.4925 10.8233 10.3718 10.7713 10.2394 10.6724C10.1944 10.6387 10.1521 10.6169 10.1135 10.5916C10.083 10.5715 10.0404 10.5337 10.0066 10.5042C9.91318 10.4225 9.90022 10.4285 9.79267 10.3172C9.7745 10.2985 9.76258 10.2915 9.73845 10.2681L9.4158 9.89269C9.2439 9.64109 9.24822 9.63677 9.11519 9.39024L8.90054 8.80512C8.88862 8.722 8.87075 8.70219 8.85853 8.63739L8.7979 8.10068C8.7769 7.61044 8.89369 7.12766 9.05248 6.74781C9.10879 6.61329 9.19057 6.47461 9.25581 6.34412C9.29812 6.25951 9.44276 6.0745 9.50309 5.99525C9.60409 5.86267 9.77256 5.70195 9.8959 5.58576C9.99079 5.49623 10.2483 5.31018 10.3602 5.24776L10.6193 5.10654L11.372 4.85286C11.4308 4.84333 11.4873 4.84035 11.5434 4.83082C11.8017 4.78672 11.813 4.81339 11.9105 4.79939V4.79924ZM12.17 3.20326C11.8151 3.20326 11.6453 3.20773 11.2793 3.25689L10.9123 3.33613C10.868 3.35014 10.8324 3.34865 10.7852 3.35773L10.5592 3.42953C10.5162 3.448 10.4874 3.44666 10.4426 3.46156L10.2308 3.54796C10.1675 3.56717 10.1748 3.56851 10.1238 3.59026C9.88473 3.692 9.66546 3.81117 9.44619 3.94479L9.13947 4.15319C9.12681 4.16198 9.12502 4.16362 9.11996 4.16809C8.9701 4.29932 8.85943 4.36874 8.69408 4.53259C8.52754 4.69764 8.36636 4.87476 8.21427 5.06171L8.14217 5.16002C8.05026 5.28113 7.91575 5.47895 7.84812 5.61123L7.76739 5.74857C7.75666 5.76928 7.75398 5.78268 7.74325 5.80384L7.4711 6.4259L7.36593 6.76941C7.3564 6.81082 7.35506 6.85521 7.34448 6.89558C7.33391 6.9358 7.31871 6.95605 7.31022 7.00819C7.29532 7.09936 7.27656 7.18158 7.26419 7.26217C7.25138 7.34648 7.24736 7.44137 7.2344 7.52851C7.2052 7.72514 7.20729 7.8893 7.20654 8.10008L7.26762 8.77384C7.27402 8.81242 7.28981 8.84966 7.29786 8.89137C7.30486 8.92756 7.30694 8.9794 7.31812 9.0232C7.32869 9.06521 7.34031 9.08815 7.34925 9.13894C7.36683 9.23904 7.38902 9.27837 7.41003 9.37773L7.56524 9.81776C7.62319 9.97685 7.76366 10.21 7.80612 10.3096C7.82369 10.351 7.83531 10.3634 7.85795 10.4065C7.91769 10.5197 8.01243 10.6729 8.09019 10.7708C8.18016 10.884 8.24958 11.002 8.34893 11.1076L8.56299 11.3403C8.59129 11.368 8.60679 11.3823 8.63881 11.4136C8.78569 11.5566 8.94195 11.7054 9.10894 11.8256C9.31227 11.9719 9.52975 12.1043 9.74888 12.228C9.7812 12.2461 9.81829 12.2645 9.84645 12.28C9.9823 12.3549 10.345 12.5119 10.4758 12.5448C10.5382 12.5604 10.5358 12.5616 10.5859 12.5822C10.6337 12.6017 10.662 12.5959 10.7088 12.6093C10.7501 12.6211 10.7751 12.6372 10.8207 12.6458C10.8801 12.6571 10.8843 12.6583 10.9383 12.6775C11.0069 12.7018 11.1053 12.7014 11.1883 12.7253L11.7229 12.7906C12.0039 12.8015 12.2814 12.7946 12.5541 12.7587C12.6988 12.7396 12.9385 12.7213 13.0682 12.6769C13.1792 12.6391 13.3185 12.6226 13.423 12.5843C13.4752 12.5652 13.4705 12.559 13.534 12.5457L13.8584 12.4255C13.9864 12.358 14.123 12.3126 14.2548 12.2362C14.2709 12.2268 14.2819 12.2174 14.2967 12.209L14.539 12.0738C14.6004 12.0362 14.6529 11.9896 14.7165 11.9531C14.8471 11.8779 14.9405 11.782 15.0582 11.6988L15.7196 11.0311C15.8387 10.8721 15.9542 10.7294 16.0588 10.5566C16.0769 10.5267 16.0765 10.5352 16.0927 10.51C16.1656 10.3981 16.3105 10.1373 16.3527 10.0251L16.5999 9.37892C16.612 9.3174 16.6092 9.31799 16.6326 9.26183L16.7555 8.63888C16.7684 8.45431 16.8031 8.2915 16.8025 8.08846C16.8019 7.90718 16.8051 7.69073 16.7744 7.52807C16.744 7.36644 16.7742 7.38 16.7175 7.14017C16.6951 7.04618 16.6997 6.99896 16.6668 6.89141C16.6326 6.77894 16.6136 6.65009 16.5698 6.54194L16.4975 6.31656C16.4651 6.19635 16.2815 5.82901 16.214 5.70582L15.9943 5.33088C15.9601 5.27651 15.9059 5.2199 15.8659 5.16002C15.7214 4.94447 15.5052 4.70509 15.3162 4.52976C15.211 4.43234 15.1157 4.33507 14.9996 4.25046L14.9126 4.1882C14.8273 4.12653 14.7473 4.04862 14.6532 4.00095C14.5773 3.96267 14.506 3.89608 14.43 3.85705C14.4096 3.84663 14.399 3.84514 14.3759 3.83143C14.3455 3.81356 14.3159 3.80075 14.28 3.77825C14.1544 3.6996 13.6955 3.50208 13.5559 3.45798L13.325 3.39408C13.2806 3.3835 13.2562 3.36593 13.2118 3.3558C13.081 3.3263 12.8375 3.26195 12.7196 3.25406C12.5321 3.24139 12.3596 3.20251 12.17 3.20251V3.20326Z" fill="#828282"/>
</svg>
